<?xml version="1.0" encoding="UTF-8"?>
<svg version="1.1" xmlns="http://www.w3.org/2000/svg" width="66" height="67">
<path d="M0 0 C21.78 0 43.56 0 66 0 C66 22.11 66 44.22 66 67 C44.22 67 22.44 67 0 67 C0 44.89 0 22.78 0 0 Z " fill="#030304" transform="translate(0,0)"/>
<path d="M0 0 C2.9375 1.8125 2.9375 1.8125 5 5 C5.79839143 12.51917898 3.49318222 19.04392124 -1 25 C-5.78923561 30.32525711 -11.26178055 33.36667364 -18.3671875 34.31640625 C-22.10879389 34.50655346 -24.32244826 34.4131413 -27.5625 32.4375 C-29.58925458 29.00082919 -29.6198676 26.92582814 -29 23 C-25.36256792 17.88486113 -21.79412325 17.30835041 -16 16 C-12.33203121 13.24251992 -11.95224391 9.64721956 -10.94140625 5.375 C-8.92788736 0.29525109 -5.15514043 -0.84165558 0 0 Z " fill="#F8F8F8" transform="translate(47,8)"/>
<path d="M0 0 C3 1 3 1 4.16796875 3.0390625 C6.17536781 8.1306264 7.87117299 12.44627217 7 18 C5.5 20.9375 5.5 20.9375 3 23 C0.17433 23.71220781 -2.17302923 23.70528549 -5 23 C-8.83207176 19.78934528 -9.98717703 15.64038921 -11.38671875 10.98828125 C-11.95475776 8.95405264 -11.95475776 8.95405264 -13 7 C-12.14535156 6.57847656 -11.29070313 6.15695313 -10.41015625 5.72265625 C-9.30542969 5.17480469 -8.20070313 4.62695312 -7.0625 4.0625 C-5.96035156 3.51722656 -4.85820313 2.97195312 -3.72265625 2.41015625 C-1.15205586 1.25295022 -1.15205586 1.25295022 0 0 Z " fill="#F6F6F6" transform="translate(45,37)"/>
<path d="M0 0 C2.4375 1.5625 2.4375 1.5625 4 4 C4.5506352 7.85444643 4.64168744 10.01073187 2.5 13.3125 C-0.34548534 15.2332026 -2.76623672 15.92128086 -6.09765625 16.60546875 C-8.20887724 17.00463197 -8.20887724 17.00463197 -11 18 C-11.10823773 15.75106046 -11.18569645 13.50062425 -11.25 11.25 C-11.29640625 9.99703125 -11.3428125 8.7440625 -11.390625 7.453125 C-11 4 -11 4 -9.203125 1.578125 C-5.9936245 -0.72087891 -3.84919009 -0.5498843 0 0 Z " fill="#F9F8F8" transform="translate(29,8)"/>
<path d="M0 0 C1.94045688 0.4241929 3.87731761 0.86485995 5.8125 1.3125 C7.43091797 1.67794922 7.43091797 1.67794922 9.08203125 2.05078125 C11.97929712 2.99326533 13.2583743 3.54263771 15 6 C15.49573337 9.89504791 15.58016848 12.09493717 13.4375 15.4375 C10.05782196 17.60396028 7.94016013 17.56288002 4 17 C1.796875 15.390625 1.796875 15.390625 0 13 C-0.390625 9.765625 -0.390625 9.765625 -0.25 6.25 C-0.21390625 5.07953125 -0.1778125 3.9090625 -0.140625 2.703125 C-0.09421875 1.81109375 -0.0478125 0.9190625 0 0 Z " fill="#F9F9F9" transform="translate(18,43)"/>
<path d="M0 0 C0.33 0 0.66 0 1 0 C1.33 3.63 1.66 7.26 2 11 C3.32 10.34 4.64 9.68 6 9 C7.40533756 8.5845535 8.82287585 8.20799564 10.25 7.875 C11.4875 7.58625 12.725 7.2975 14 7 C14.66 4.69 15.32 2.38 16 0 C16.33 0.99 16.66 1.98 17 3 C17.66 3 18.32 3 19 3 C18.17708855 6.36645595 17.62029485 8.47368922 14.9375 10.75 C10.07936681 12.81729072 5.13030329 14.7101011 0 13 C0 8.71 0 4.42 0 0 Z " fill="#2B2B2B" transform="translate(17,14)"/>
<path d="M0 0 C2.57112831 1.76765071 3.07659703 3.45089059 4 6.375 C3.34 6.375 2.68 6.375 2 6.375 C1.67 7.695 1.34 9.015 1 10.375 C0.731875 9.281875 0.46375 8.18875 0.1875 7.0625 C-0.87663739 3.75807337 -1.34654664 2.42539578 -4 0.375 C-2 -0.625 -2 -0.625 0 0 Z " fill="#161616" transform="translate(32,44.625)"/>
<path d="M0 0 C0.33 0.99 0.66 1.98 1 3 C1.66 3 2.32 3 3 3 C2.39816251 5.02045442 1.72693904 7.02111039 1 9 C0.01 9.495 0.01 9.495 -1 10 C-1.99 9.34 -2.98 8.68 -4 8 C-3.525625 7.608125 -3.05125 7.21625 -2.5625 6.8125 C-0.64820367 4.59191626 -0.38733012 2.86624291 0 0 Z " fill="#191919" transform="translate(33,14)"/>
<path d="M0 0 C0.33 0.99 0.66 1.98 1 3 C-1.31 3.66 -3.62 4.32 -6 5 C-6.33 4.01 -6.66 3.02 -7 2 C-2.25 0 -2.25 0 0 0 Z " fill="#1D1D1D" transform="translate(38,39)"/>
</svg>
